Coordinates
version=1
nRows=54
nColumns=12
inDegrees=yes

Units are S.I. units (second, meters, Newtons, ...)
Angles are in degrees

endheader
time	SC_y	SC_z	SC_x	AC_y	AC_z	AC_x	GH_y	GH_z	GH_yy	EL_x	PS_y
       0.0              -42.85           9.69           10.8          36.08         -16.26          3.841         -170.0          14.26         -157.0          43.52          97.44
   0.03008              -42.85          9.689           10.8          36.08         -16.26          3.842         -169.9          14.26         -157.0          43.52          97.43
   0.06016              -42.85          9.686           10.8          36.09         -16.26          3.843         -169.9          14.26         -156.9          43.53          97.42
   0.09023              -42.85          9.684           10.8          36.09         -16.26          3.844         -169.8          14.25         -156.9          43.53          97.41
    0.1203              -42.85          9.682          10.81           36.1         -16.26          3.845         -169.8          14.25         -156.9          43.53           97.4
    0.1504              -42.85          9.679          10.81           36.1         -16.26          3.847         -169.7          14.25         -156.8          43.53          97.39
    0.1805              -42.85          9.677          10.81          36.11         -16.26          3.848         -169.7          14.25         -156.8          43.53          97.38
    0.2105              -42.86          9.674          10.81          36.12         -16.26          3.849         -169.6          14.25         -156.7          43.54          97.37
    0.2406              -42.86          9.671          10.81          36.12         -16.26          3.851         -169.5          14.25         -156.7          43.54          97.36
    0.2707              -42.86          9.668          10.81          36.13         -16.26          3.852         -169.5          14.25         -156.6          43.54          97.34
    0.3008              -42.86          9.664          10.81          36.14         -16.25          3.854         -169.4          14.24         -156.6          43.54          97.33
    0.3309              -42.87           9.66          10.81          36.15         -16.25          3.856         -169.3          14.24         -156.5          43.55          97.31
    0.3609              -42.87          9.656          10.81          36.15         -16.25          3.858         -169.2          14.24         -156.4          43.55           97.3
     0.391              -42.87          9.652          10.81          36.16         -16.25           3.86         -169.1          14.24         -156.3          43.55          97.28
    0.4211              -42.87          9.647          10.81          36.17         -16.25          3.862         -169.0          14.23         -156.3          43.56          97.26
    0.4512              -42.88          9.642          10.81          36.19         -16.25          3.865         -168.9          14.23         -156.2          43.56          97.24
    0.4812              -42.88          9.636          10.81           36.2         -16.25          3.868         -168.7          14.23         -156.1          43.57          97.22
    0.5113              -42.89           9.63          10.81          36.21         -16.25           3.87         -168.6          14.22         -156.0          43.57          97.19
    0.5414              -42.89          9.624          10.82          36.22         -16.25          3.874         -168.4          14.22         -155.9          43.58          97.17
    0.5715              -42.89          9.616          10.82          36.24         -16.25          3.877         -168.3          14.22         -155.7          43.58          97.14
    0.6016               -42.9          9.608          10.82          36.26         -16.25          3.881         -168.1          14.21         -155.6          43.59           97.1
    0.6316              -42.91          9.599          10.82          36.28         -16.25          3.885         -167.9          14.21         -155.4           43.6          97.07
    0.6617              -42.91           9.59          10.82           36.3         -16.25           3.89         -167.6           14.2         -155.3          43.61          97.03
    0.6918              -42.92          9.579          10.82          36.32         -16.25          3.895         -167.4           14.2         -155.1          43.61          96.98
    0.7219              -42.93          9.567          10.83          36.35         -16.24          3.901         -167.1          14.19         -154.9          43.62          96.94
     0.752              -42.94          9.554          10.83          36.38         -16.24          3.908         -166.8          14.18         -154.7          43.64          96.88
     0.782              -42.95          9.539          10.83          36.41         -16.24          3.915         -166.4          14.17         -154.4          43.65          96.82
    0.8121              -42.96          9.522          10.84          36.44         -16.24          3.923         -166.0          14.17         -154.1          43.66          96.75
    0.8422              -42.97          9.503          10.84          36.49         -16.24          3.932         -165.6          14.16         -153.8          43.68          96.68
    0.8723              -42.98          9.481          10.84          36.53         -16.24          3.943         -165.1          14.14         -153.4           43.7          96.59
    0.9023               -43.0          9.456          10.85          36.59         -16.23          3.955         -164.5          14.13         -153.0          43.72          96.49
    0.9324              -43.02          9.428          10.85          36.65         -16.23          3.968         -163.9          14.11         -152.5          43.74          96.37
    0.9625              -43.04          9.395          10.86          36.72         -16.23          3.984         -163.1           14.1         -151.9          43.77          96.24
    0.9926              -43.06          9.357          10.87           36.8         -16.22          4.003         -162.2          14.08         -151.3           43.8          96.09
     1.023              -43.09          9.313          10.87           36.9         -16.22          4.024         -161.2          14.05         -150.5          43.83          95.91
     1.053              -43.13           9.26          10.88          37.01         -16.21           4.05         -159.9          14.02         -149.6          43.88          95.69
     1.083              -43.17          9.198           10.9          37.14         -16.21           4.08         -158.5          13.99         -148.5          43.93          95.44
     1.113              -43.22          9.123          10.91           37.3          -16.2          4.116         -156.7          13.95         -147.3          43.99          95.14
     1.143              -43.28          9.033          10.93           37.5         -16.19           4.16         -154.6           13.9         -145.7          44.06          94.77
     1.173              -43.35          8.922          10.95          37.74         -16.18          4.213         -152.0          13.84         -143.8          44.15          94.32
     1.203              -43.44          8.786          10.97          38.03         -16.16          4.279         -148.9          13.76         -141.5          44.27          93.77
     1.233              -43.55          8.616           11.0           38.4         -16.15          4.362         -144.9          13.67         -138.6          44.41          93.08
     1.263              -43.69          8.402          11.04          38.86         -16.12          4.465         -139.9          13.55         -134.9          44.58          92.22
     1.293              -43.87          8.129           11.1          39.45         -16.09          4.597         -133.5           13.4         -130.2          44.81          91.12
     1.323               -44.1          7.781          11.16           40.2         -16.06          4.766         -125.4          13.21         -124.2          45.09           89.7
     1.354              -44.39          7.334          11.24          41.16         -16.01          4.982         -114.9          12.97         -116.5          45.46          87.89
     1.384              -44.77          6.763          11.35          42.39         -15.95          5.259         -101.6          12.66         -106.7          45.93          85.58
     1.414              -45.24          6.044          11.48          43.94         -15.88          5.606          -84.8          12.26         -94.39          46.52          82.67
     1.444              -45.81          5.169          11.65          45.83         -15.79           6.03         -64.35          11.78         -79.36          47.24          79.13
     1.474              -46.48          4.155          11.84          48.02         -15.68          6.521         -40.64          11.23         -61.94          48.07          75.02
     1.504               -47.2          3.056          12.04          50.38         -15.57          7.053         -14.97          10.63         -43.08          48.98          70.57
     1.534              -47.92          1.958          12.25          52.75         -15.45          7.585           10.7          10.03         -24.21          49.88          66.13
     1.564              -48.59          0.943          12.44          54.94         -15.35          8.076           34.4          9.471         -6.788          50.71          62.02
     1.594              -49.16        0.06776           12.6          56.83         -15.25          8.499          54.85          8.992          8.242          51.43          58.47
